<svg id="bBH7uOLBO" viewBox="0 0 400 60" height="40" width="240" style="width: 240px; height: 40px;">
    <defs id="SvgjsDefs1001"></defs>
    <g id="SvgjsG1007" featurekey="HdFLvg-0" transform="matrix(0.8266414737836562,0,0,0.8266414737836562,-11.159659896079358,-11.159659896079358)" fill="#febd69">
        <metadata xmlns="http://www.w3.org/2000/svg">
            <!--?xpacket begin="&;" id="W5M0MpCehiHzreSzNTczkc9d"?-->
            <x:xmpmeta xmlns:x="adobe:ns:meta/" x:xmptk="Adobe XMP Core 5.5-c014 79.151739, 2013/04/03-12:12:15        ">
            </x:xmpmeta><!--?xpacket end="w"?-->
        </metadata>
        <path xmlns="http://www.w3.org/2000/svg" d="M51,83.4629517V86.5h20.5039063c0.0067139-0.9648438,0.0252075-1.9748535,0.0495605-3.0050659  C64.1516113,83.4557495,54.0393066,83.4234009,51,83.4629517z">
        </path>
        <path xmlns="http://www.w3.org/2000/svg" d="M24.7021484,55.2211914c-0.3886719-4.5200195-0.6884766-7.5356445-0.6972656-7.621582  c-0.0517578-0.5219727,0.3076172-0.9956055,0.8251953-1.0849609c0.5166016-0.0859375,1.015625,0.2358398,1.140625,0.7456055  c0.4960938,2.0083008,0.7089844,4.7416992,0.7285156,7.8476563c0.598877,6.9736328,1.4041138,17.4772949,1.6914063,26.387146  C41.5667114,81.4224243,46.8225708,81.3981934,49,81.4783936V33.2784424  c-1.9395752-0.4952393-4.6722412-1.2252808-7.6589355-2.0357666l1.9653931,7.8614502  C44.8473511,39.4700928,46,40.8496094,46,42.5009766C46,44.4301758,44.4306641,46,42.5009766,46  s-3.4990234-1.5698242-3.4990234-3.4990234c0-1.4979248,0.9503174-2.7686768,2.276123-3.2669678l-2.1482544-8.5932617  c-7.1367188-1.9484863-14.9118042-4.1213989-16.5706787-4.5858154C21.0070801,26.7089233,13.5,30.3693848,13.5,40v41.5h8.8970947  C23.3522949,74.7562866,24.7350464,63.5244751,24.7021484,55.2211914z M32.5,71.5H45c0.5527344,0,1,0.4477539,1,1s-0.4472656,1-1,1  H32.5c-0.5527344,0-1-0.4477539-1-1S31.9472656,71.5,32.5,71.5z">
        </path>
        <path xmlns="http://www.w3.org/2000/svg" d="M22.1074829,83.5H13.5v3h8.1484375C21.7536011,85.8391724,21.9145508,84.8048706,22.1074829,83.5z">
        </path>
        <path xmlns="http://www.w3.org/2000/svg" d="M41.7929688,25.7070313c-1.1943359-1.1933594-3.5888672-3.5864258-2.6308594-5.8984375  C40.0615234,17.6362305,43.5048828,16.6245117,50,16.6245117s9.9384766,1.0117188,10.8378906,3.184082  c0.9580078,2.3120117-1.4365234,4.7050781-2.5878906,5.8554688l-4.946228,4.946228  c6.7984009-1.8012695,17.7982788-4.8616943,22.1112671-6.0658569c-3.2724609-2.8203125-5.3378906-4.9384766-6.8974609-6.5380859  C64.1240234,13.5,64.1240234,13.5,50,13.5s-14.1240234,0-18.5175781,4.5063477  c-1.5595703,1.5996094-3.625,3.7177734-6.8974609,6.5380859c4.3129883,1.2041626,15.3128662,4.2645874,22.1112671,6.0658569  L41.7929688,25.7070313z">
        </path>
        <circle xmlns="http://www.w3.org/2000/svg" cx="42.5009766" cy="42.5007324" r="1.4992676"></circle>
        <path xmlns="http://www.w3.org/2000/svg" d="M58.9902344,20.5737305C58.8007813,20.1162109,57.5927734,18.6245117,50,18.6245117  s-8.8007813,1.4916992-8.9902344,1.9492188c-0.4462891,1.0771484,1.4423828,2.9648438,2.1542969,3.6757813L50,31.0859375  l6.7929688-6.7929688C57.5478516,23.5385742,59.4365234,21.6508789,58.9902344,20.5737305z">
        </path>
        <path xmlns="http://www.w3.org/2000/svg" d="M49,83.4629517c-3.0389404-0.0395508-13.1519165-0.0072021-20.5534668,0.0319824  c0.024353,1.0302124,0.0428467,2.0402222,0.0495605,3.0050659H49V83.4629517z">
        </path>
        <circle xmlns="http://www.w3.org/2000/svg" cx="57.4990234" cy="42.5009766" r="1.4990234"></circle>
        <path xmlns="http://www.w3.org/2000/svg" d="M77.440979,26.0549316c-1.6588135,0.4643555-9.43396,2.6373291-16.5708008,4.5858154l-2.1482544,8.5932617  c1.3258057,0.49823,2.276123,1.7689819,2.276123,3.2669678C60.9980469,44.4301758,59.4287109,46,57.4990234,46  S54,44.4301758,54,42.5009766c0-1.6513672,1.1526489-3.0308228,2.6935425-3.3968506l1.9653931-7.8614502  C55.6722412,32.0531616,52.9395752,32.7832031,51,33.2784424v48.1998291  c2.1773071-0.0803833,7.4332886-0.0564575,20.609375,0.0167847c0.2872925-8.9098511,1.0925293-19.4135132,1.6914063-26.387146  c0.0195313-3.105957,0.2324219-5.8393555,0.7285156-7.8476563c0.125-0.5092773,0.6230469-0.8310547,1.140625-0.7456055  c0.5175781,0.0893555,0.8769531,0.5629883,0.8251953,1.0849609c-0.0087891,0.0859375-0.3085938,3.1020508-0.6972656,7.6220703  C75.2649536,63.5249634,76.6477051,74.7564087,77.6029053,81.5H86.5V40C86.5,30.3693237,78.993103,26.7090454,77.440979,26.0549316z   M67.5,73.5H55c-0.5527344,0-1-0.4477539-1-1s0.4472656-1,1-1h12.5c0.5527344,0,1,0.4477539,1,1S68.0527344,73.5,67.5,73.5z">
        </path>
        <path xmlns="http://www.w3.org/2000/svg" d="M78.3515625,86.5H86.5v-3h-8.6074829C78.0854492,84.8048706,78.2463989,85.8391724,78.3515625,86.5z">
        </path>
    </g>
    <g id="SvgjsG1008" featurekey="VomJeJ-0" transform="matrix(2.4402288226058304,0,0,2.4402288226058304,79.2679332149651,-5.884413349706275)" fill="#ffffff">
        <path d="M0.3 18.82 q0.06 -0.66 0.41 -1.32 t0.83 -1.08 q2.14 1.3 4.06 1.3 q0.84 0 1.23 -0.38 t0.39 -0.94 q0 -0.94 -1.26 -1.48 l-2.36 -1 q-1.38 -0.62 -2.12 -1.49 t-0.74 -2.21 q0 -0.92 0.37 -1.68 t1.04 -1.32 t1.59 -0.87 t2.04 -0.31 q2.24 0 4.52 1.14 q-0.1 1.54 -1.08 2.4 q-2.04 -0.98 -3.6 -0.98 q-0.8 0 -1.2 0.36 t-0.4 0.82 q0 0.78 1.18 1.26 l2.4 1.02 q1.52 0.64 2.27 1.64 t0.75 2.32 q0 0.94 -0.34 1.72 t-1.01 1.35 t-1.67 0.89 t-2.34 0.32 q-2.6 0 -4.96 -1.48 z M20.86 13.4 l0 4.1 q0 1.34 0.5 1.98 q-0.76 0.68 -1.84 0.68 q-1.04 0 -1.42 -0.48 t-0.38 -1.46 l0 -4.26 q0 -0.68 -0.18 -1 t-0.7 -0.32 q-0.3 0 -0.68 0.16 t-0.78 0.52 l0 6.68 q-0.66 0.12 -1.52 0.12 t-1.52 -0.12 l0 -14.58 l0.14 -0.14 l1.2 0 q0.96 0 1.33 0.42 t0.37 1.46 l0 3.78 q1.34 -1.1 2.68 -1.1 t2.07 0.97 t0.73 2.59 z M30.4 10.9 q1.44 1.44 1.44 4.12 q0 1.2 -0.31 2.18 t-0.9 1.67 t-1.45 1.06 t-1.98 0.37 t-1.97 -0.38 t-1.44 -1.07 t-0.89 -1.67 t-0.3 -2.16 q0 -1.2 0.3 -2.17 t0.88 -1.67 t1.44 -1.08 t1.98 -0.38 q1.98 0 3.2 1.18 z M27.22 12.059999999999999 q-0.44 0 -0.71 0.21 t-0.43 0.57 t-0.22 0.83 t-0.06 1.01 q0 0.84 0.05 1.45 t0.2 1.02 t0.42 0.61 t0.71 0.2 q0.88 0 1.16 -0.77 t0.28 -2.19 q0 -1.44 -0.28 -2.19 t-1.12 -0.75 z M38.54 20.2 q-0.92 0 -1.84 -0.42 l0 2.66 q0 1.04 -0.38 1.46 t-1.34 0.42 l-1.2 0 l-0.14 -0.14 l0 -14.16 l0.14 -0.14 l0.82 0 q1.14 0 1.7 0.98 q1.14 -1.14 2.78 -1.14 q0.84 0 1.48 0.37 t1.09 1.05 t0.68 1.64 t0.23 2.16 t-0.31 2.18 t-0.85 1.66 t-1.27 1.05 t-1.59 0.37 z M38.16 12.219999999999999 q-0.84 0 -1.46 0.8 l0 4.4 q0.76 0.46 1.3 0.46 q1.36 0 1.36 -3.02 q0 -2.64 -1.2 -2.64 z M49.3 20.2 q-0.92 0 -1.84 -0.42 l0 2.66 q0 1.04 -0.38 1.46 t-1.34 0.42 l-1.2 0 l-0.14 -0.14 l0 -14.16 l0.14 -0.14 l0.82 0 q1.14 0 1.7 0.98 q1.14 -1.14 2.78 -1.14 q0.84 0 1.48 0.37 t1.09 1.05 t0.68 1.64 t0.23 2.16 t-0.31 2.18 t-0.85 1.66 t-1.27 1.05 t-1.59 0.37 z M48.919999999999995 12.219999999999999 q-0.84 0 -1.46 0.8 l0 4.4 q0.76 0.46 1.3 0.46 q1.36 0 1.36 -3.02 q0 -2.64 -1.2 -2.64 z M62.94 16.02 l-5.22 0 q0.04 0.9 0.46 1.4 t1.38 0.5 q0.48 0 1.11 -0.14 t1.45 -0.46 q0.66 0.68 0.82 1.84 q-1.6 1.14 -3.92 1.14 q-1.26 0 -2.11 -0.4 t-1.38 -1.12 t-0.75 -1.7 t-0.22 -2.14 q0 -1.12 0.27 -2.07 t0.82 -1.65 t1.4 -1.1 t1.99 -0.4 q0.96 0 1.73 0.32 t1.31 0.88 t0.83 1.34 t0.29 1.7 q0 1.22 -0.26 2.06 z M57.699999999999996 13.86 l2.64 0 l0 -0.22 q0 -0.74 -0.33 -1.22 t-0.99 -0.48 q-0.64 0 -0.95 0.45 t-0.37 1.47 z M64.49999999999999 11.46 q0.1 -0.4 0.38 -0.89 t0.56 -0.71 q1.84 0.14 2.56 1.82 q0.76 -1.8 2.5 -1.8 q0.52 0 1.32 0.16 q0 0.62 -0.21 1.47 t-0.57 1.45 q-0.34 -0.12 -1.02 -0.2 q-1 0 -1.64 1.02 l0 6.22 q-0.66 0.12 -1.55 0.12 t-1.57 -0.12 l0 -6.46 q0 -1.5 -0.76 -2.08 z M78.17999999999999 17.32 l2.62 -10.98 q0.48 -0.12 1.24 -0.12 q1.04 0 1.64 0.22 l0.12 0.16 l-3.74 13.4 q-1.14 0.12 -2.29 0.12 t-1.66 -0.29 t-0.77 -1.15 l-3.32 -12.06 q1.08 -0.46 1.78 -0.46 q0.84 0 1.24 0.38 t0.62 1.2 l1.54 5.7 q0.36 1.34 0.76 3.64 q0.04 0.24 0.22 0.24 z M92 16.02 l-5.22 0 q0.04 0.9 0.46 1.4 t1.38 0.5 q0.48 0 1.11 -0.14 t1.45 -0.46 q0.66 0.68 0.82 1.84 q-1.6 1.14 -3.92 1.14 q-1.26 0 -2.11 -0.4 t-1.38 -1.12 t-0.75 -1.7 t-0.22 -2.14 q0 -1.12 0.27 -2.07 t0.82 -1.65 t1.4 -1.1 t1.99 -0.4 q0.96 0 1.73 0.32 t1.31 0.88 t0.83 1.34 t0.29 1.7 q0 1.22 -0.26 2.06 z M86.75999999999999 13.86 l2.64 0 l0 -0.22 q0 -0.74 -0.33 -1.22 t-0.99 -0.48 q-0.64 0 -0.95 0.45 t-0.37 1.47 z M93.55999999999999 11.46 q0.1 -0.4 0.38 -0.89 t0.56 -0.71 q1.84 0.14 2.56 1.82 q0.76 -1.8 2.5 -1.8 q0.52 0 1.32 0.16 q0 0.62 -0.21 1.47 t-0.57 1.45 q-0.34 -0.12 -1.02 -0.2 q-1 0 -1.64 1.02 l0 6.22 q-0.66 0.12 -1.55 0.12 t-1.57 -0.12 l0 -6.46 q0 -1.5 -0.76 -2.08 z M101.3 19.32 q0.02 -0.52 0.27 -1.14 t0.59 -0.98 q1.6 0.84 2.78 0.84 q0.56 0 0.86 -0.19 t0.3 -0.51 q0 -0.6 -0.92 -0.9 l-1.1 -0.42 q-2.5 -0.92 -2.5 -3 q0 -1.52 1.05 -2.41 t2.83 -0.89 q0.88 0 1.94 0.25 t1.74 0.59 q0.04 0.56 -0.22 1.23 t-0.64 0.95 q-1.68 -0.76 -2.8 -0.76 q-0.4 0 -0.61 0.18 t-0.21 0.46 q0 0.48 0.76 0.76 l1.24 0.44 q2.66 0.94 2.66 3.22 q0 1.5 -1.1 2.38 t-3.14 0.88 t-3.78 -0.98 z M118.74 16.02 l-5.22 0 q0.04 0.9 0.46 1.4 t1.38 0.5 q0.48 0 1.11 -0.14 t1.45 -0.46 q0.66 0.68 0.82 1.84 q-1.6 1.14 -3.92 1.14 q-1.26 0 -2.11 -0.4 t-1.38 -1.12 t-0.75 -1.7 t-0.22 -2.14 q0 -1.12 0.27 -2.07 t0.82 -1.65 t1.4 -1.1 t1.99 -0.4 q0.96 0 1.73 0.32 t1.31 0.88 t0.83 1.34 t0.29 1.7 q0 1.22 -0.26 2.06 z M113.49999999999999 13.86 l2.64 0 l0 -0.22 q0 -0.74 -0.33 -1.22 t-0.99 -0.48 q-0.64 0 -0.95 0.45 t-0.37 1.47 z">
        </path>
    </g>
</svg>